<svg xmlns="http://www.w3.org/2000/svg" viewBox="0 0 240 240">
  <rect x="12" y="12" width="216" height="216" rx="18" ry="18" fill="#ffffff" stroke="#1f1f1f" stroke-width="12" />
  <rect x="36" y="36" width="168" height="44" rx="6" fill="#101010" />
  <text x="120" y="66" text-anchor="middle" font-size="28" font-family="'Noto Sans Thai', 'Sarabun', sans-serif" fill="#ffffff">ตราช้างใหญ่</text>
  <g transform="translate(36 104)">
    <path d="M54 66c0 14.912 12.088 27 27 27s27-12.088 27-27-12.088-27-27-27-27 12.088-27 27zm14.4 0c0-6.98 5.64-12.6 12.6-12.6s12.6 5.62 12.6 12.6c0 6.96-5.64 12.6-12.6 12.6s-12.6-5.64-12.6-12.6z" fill="#1f1f1f" />
    <path d="M96 58h70c5.522 0 10-4.478 10-10v-8c0-5.522-4.478-10-10-10h-58l-12 18v10z" fill="#1f1f1f" />
    <path d="M142 30h30v20h-30z" fill="#1f1f1f" />
    <rect x="122" y="70" width="62" height="16" rx="8" fill="#1f1f1f" />
    <path d="M182 70 206 98 190 112 160 82z" fill="#d62828" />
  </g>
  <text x="120" y="182" text-anchor="middle" font-size="26" font-family="'Sarabun', 'Noto Sans Thai', sans-serif" fill="#1f1f1f">ตราช้างใหญ่</text>
</svg>
